TITLE ""
FILE "Disc6Track10.mp3" MP3
  TRACK 01 AUDIO
    TITLE "Disc6Track10_01"
    INDEX 01 00:00:00
  TRACK 02 AUDIO
    TITLE "Disc6Track10_02"
    INDEX 01 00:01:04
  TRACK 03 AUDIO
    TITLE "Disc6Track10_03"
    INDEX 01 00:03:07
  TRACK 04 AUDIO
    TITLE "Disc6Track10_04"
    INDEX 01 00:04:22
  TRACK 05 AUDIO
    TITLE "Disc6Track10_05"
    INDEX 01 00:06:13
  TRACK 06 AUDIO
    TITLE "Disc6Track10_06"
    INDEX 01 00:06:44
  TRACK 07 AUDIO
    TITLE "Disc6Track10_07"
    INDEX 01 00:07:59
  TRACK 08 AUDIO
    TITLE "Disc6Track10_08"
    INDEX 01 00:09:48
  TRACK 09 AUDIO
    TITLE "Disc6Track10_09"
    INDEX 01 00:10:64
  TRACK 10 AUDIO
    TITLE "Disc6Track10_10"
    INDEX 01 00:14:75
  TRACK 11 AUDIO
    TITLE "Disc6Track10_11"
    INDEX 01 00:15:31
  TRACK 12 AUDIO
    TITLE "Disc6Track10_12"
    INDEX 01 00:16:37
  TRACK 13 AUDIO
    TITLE "Disc6Track10_13"
    INDEX 01 00:19:06
  TRACK 14 AUDIO
    TITLE "Disc6Track10_14"
    INDEX 01 00:20:17
  TRACK 15 AUDIO
    TITLE "Disc6Track10_15"
    INDEX 01 00:24:48
  TRACK 16 AUDIO
    TITLE "Disc6Track10_16"
    INDEX 01 00:25:02
  TRACK 17 AUDIO
    TITLE "Disc6Track10_17"
    INDEX 01 00:26:27
  TRACK 18 AUDIO
    TITLE "Disc6Track10_18"
    INDEX 01 00:31:42
  TRACK 19 AUDIO
    TITLE "Disc6Track10_19"
    INDEX 01 00:32:65
  TRACK 20 AUDIO
    TITLE "Disc6Track10_20"
    INDEX 01 00:34:72
  TRACK 21 AUDIO
    TITLE "Disc6Track10_21"
    INDEX 01 00:35:26
  TRACK 22 AUDIO
    TITLE "Disc6Track10_22"
    INDEX 01 00:36:45
  TRACK 23 AUDIO
    TITLE "Disc6Track10_23"
    INDEX 01 00:37:41
  TRACK 24 AUDIO
    TITLE "Disc6Track10_24"
    INDEX 01 00:38:60
  TRACK 25 AUDIO
    TITLE "Disc6Track10_25"
    INDEX 01 00:39:14
  TRACK 26 AUDIO
    TITLE "Disc6Track10_26"
    INDEX 01 00:40:43
  TRACK 27 AUDIO
    TITLE "Disc6Track10_27"
    INDEX 01 00:42:67
  TRACK 28 AUDIO
    TITLE "Disc6Track10_28"
    INDEX 01 00:44:21
  TRACK 29 AUDIO
    TITLE "Disc6Track10_29"
    INDEX 01 00:44:60
  TRACK 30 AUDIO
    TITLE "Disc6Track10_30"
    INDEX 01 00:46:06
  TRACK 31 AUDIO
    TITLE "Disc6Track10_31"
    INDEX 01 00:48:05
  TRACK 32 AUDIO
    TITLE "Disc6Track10_32"
    INDEX 01 00:49:24
  TRACK 33 AUDIO
    TITLE "Disc6Track10_33"
    INDEX 01 00:51:39
  TRACK 34 AUDIO
    TITLE "Disc6Track10_34"
    INDEX 01 00:51:70
  TRACK 35 AUDIO
    TITLE "Disc6Track10_35"
    INDEX 01 00:53:05
  TRACK 36 AUDIO
    TITLE "Disc6Track10_36"
    INDEX 01 00:55:68
  TRACK 37 AUDIO
    TITLE "Disc6Track10_37"
    INDEX 01 00:57:02
  TRACK 38 AUDIO
    TITLE "Disc6Track10_38"
    INDEX 01 00:58:61
  TRACK 39 AUDIO
    TITLE "Disc6Track10_39"
    INDEX 01 00:59:17
  TRACK 40 AUDIO
    TITLE "Disc6Track10_40"
    INDEX 01 01:00:30
  TRACK 41 AUDIO
    TITLE "Disc6Track10_41"
    INDEX 01 01:01:33
  TRACK 42 AUDIO
    TITLE "Disc6Track10_42"
    INDEX 01 01:02:51
  TRACK 43 AUDIO
    TITLE "Disc6Track10_43"
    INDEX 01 01:03:03
  TRACK 44 AUDIO
    TITLE "Disc6Track10_44"
    INDEX 01 01:04:18
  TRACK 45 AUDIO
    TITLE "Disc6Track10_45"
    INDEX 01 01:05:22
  TRACK 46 AUDIO
    TITLE "Disc6Track10_46"
    INDEX 01 01:06:35
  TRACK 47 AUDIO
    TITLE "Disc6Track10_47"
    INDEX 01 01:08:18
  TRACK 48 AUDIO
    TITLE "Disc6Track10_48"
    INDEX 01 01:08:49
  TRACK 49 AUDIO
    TITLE "Disc6Track10_49"
    INDEX 01 01:09:60
  TRACK 50 AUDIO
    TITLE "Disc6Track10_50"
    INDEX 01 01:13:54
  TRACK 51 AUDIO
    TITLE "Disc6Track10_51"
    INDEX 01 01:14:67
  TRACK 52 AUDIO
    TITLE "Disc6Track10_52"
    INDEX 01 01:16:68
